<svg width="11" height="14" viewBox="0 0 11 14" fill="none" xmlns="http://www.w3.org/2000/svg">
<path d="M5.63464 9.93398L5.23646 8.79648C5.14193 8.52852 4.88125 8.34805 4.58333 8.34805C4.28542 8.34805 4.02474 8.52852 3.93021 8.79648L3.40885 10.2922C3.36589 10.418 3.24271 10.5 3.10521 10.5H2.75C2.49792 10.5 2.29167 10.6969 2.29167 10.9375C2.29167 11.1781 2.49792 11.375 2.75 11.375H3.10521C3.63802 11.375 4.11068 11.0496 4.27969 10.5684L4.58333 9.69609L5.06458 11.077C5.12474 11.2438 5.28229 11.3613 5.46849 11.375C5.47995 11.375 5.49141 11.375 5.5 11.375C5.67188 11.375 5.83229 11.282 5.90964 11.1316L6.13021 10.7133C6.21042 10.5602 6.35651 10.5437 6.41667 10.5437C6.47682 10.5437 6.62578 10.5602 6.70885 10.7215C6.92083 11.1234 7.34479 11.3723 7.81458 11.3723H8.25C8.50208 11.3723 8.70833 11.1754 8.70833 10.9348C8.70833 10.6941 8.50208 10.4973 8.25 10.4973H7.81458C7.69141 10.4973 7.58255 10.4316 7.5224 10.3195C7.18151 9.66875 6.19896 9.49375 5.63464 9.93398ZM2.0625 2.625H5.27083C5.39687 2.625 5.5 2.52656 5.5 2.40625V1.96875C5.5 1.84844 5.39687 1.75 5.27083 1.75H2.0625C1.93646 1.75 1.83333 1.84844 1.83333 1.96875V2.40625C1.83333 2.52656 1.93646 2.625 2.0625 2.625ZM5.5 4.15625V3.71875C5.5 3.59844 5.39687 3.5 5.27083 3.5H2.0625C1.93646 3.5 1.83333 3.59844 1.83333 3.71875V4.15625C1.83333 4.27656 1.93646 4.375 2.0625 4.375H5.27083C5.39687 4.375 5.5 4.27656 5.5 4.15625ZM10.5961 2.67969L8.19271 0.385547C7.9349 0.139453 7.58542 0 7.22161 0H1.375C0.615885 0.00273437 0 0.590625 0 1.31523V12.6875C0 13.4121 0.615885 14 1.375 14H9.625C10.3841 14 11 13.4121 11 12.6875V3.60938C11 3.26211 10.8539 2.92578 10.5961 2.67969ZM7.33333 0.891406C7.41354 0.910547 7.48516 0.948828 7.54531 1.00625L9.9487 3.30039C10.0089 3.35781 10.049 3.42617 10.069 3.50273H7.33333V0.891406ZM10.0833 12.6875C10.0833 12.9281 9.87708 13.125 9.625 13.125H1.375C1.12292 13.125 0.916667 12.9281 0.916667 12.6875V1.31523C0.916667 1.07461 1.12292 0.875 1.375 0.875H6.41667V3.72148C6.41667 4.08516 6.72318 4.375 7.10417 4.375H10.0833V12.6875Z" fill="#5B7FB6"/>
</svg>
